<?xml version="1.0" encoding="UTF-8" standalone="no"?>
<svg
   width="16"
   height="16"
   version="1.1"
   id="svg4"
   sodipodi:docname="LobbyClient.svg"
   inkscape:version="1.2.2 (732a01da63, 2022-12-09)"
   xmlns:inkscape="http://www.inkscape.org/namespaces/inkscape"
   xmlns:sodipodi="http://sodipodi.sourceforge.net/DTD/sodipodi-0.dtd"
   xmlns="http://www.w3.org/2000/svg"
   xmlns:svg="http://www.w3.org/2000/svg">
  <defs
     id="defs8" />
  <sodipodi:namedview
     id="namedview6"
     pagecolor="#ffffff"
     bordercolor="#000000"
     borderopacity="0.25"
     inkscape:showpageshadow="2"
     inkscape:pageopacity="0.0"
     inkscape:pagecheckerboard="true"
     inkscape:deskcolor="#d1d1d1"
     showgrid="true"
     inkscape:zoom="23.069359"
     inkscape:cx="5.0933362"
     inkscape:cy="6.6105002"
     inkscape:window-width="1366"
     inkscape:window-height="705"
     inkscape:window-x="-4"
     inkscape:window-y="-4"
     inkscape:window-maximized="1"
     inkscape:current-layer="svg4">
    <inkscape:grid
       type="xygrid"
       id="grid387"
       empspacing="4" />
  </sodipodi:namedview>
  <path
     fill="#F079F2"
     d="m 5,5 v 2 h 6 V 5 Z M 3,1 C 2,1 1,2 1,3 v 10.034483 c 0,1.104569 0.8954305,2 2,2 h 10 c 1.104569,0 2,-0.929914 2,-2.034483 V 3 C 15,2 14,1 13,1 Z M 3,2 H 4 V 3 H 3 Z M 6,2 H 7 V 3 H 6 Z m 3,0 h 1 V 3 H 9 Z m 3,0 h 1 V 3 H 12 Z M 3,4 h 10 v 9 H 3 Z m 2,6 v 2 h 6 v -2 z"
     id="path2"
     sodipodi:nodetypes="cccccszsssszzscccccccccccccccccccccccccccccc"
     style="fill:#F079F2;fill-opacity:1" />
</svg>
